<mxfile host="app.diagrams.net" modified="2024-04-24T13:44:25.605Z" agent="Mozilla/5.0 (Windows NT 10.0; Win64; x64) AppleWebKit/537.36 (KHTML, like Gecko) Chrome/124.0.0.0 Safari/537.36" etag="wtxUqJpondgYiXHkAeQD" version="24.2.0" type="github">
  <diagram name="Seite-1" id="ulydZh7psTr_mP228iLq">
    <mxGraphModel dx="1793" dy="943" grid="1" gridSize="10" guides="1" tooltips="1" connect="1" arrows="1" fold="1" page="1" pageScale="1" pageWidth="1654" pageHeight="1169" math="0" shadow="0">
      <root>
        <mxCell id="0" />
        <mxCell id="1" parent="0" />
        <mxCell id="gQ7rpUJrjsXag59dIkuR-16" value="" style="swimlane;startSize=0;" vertex="1" parent="1">
          <mxGeometry x="20" y="20" width="1410" height="960" as="geometry" />
        </mxCell>
        <mxCell id="gQ7rpUJrjsXag59dIkuR-61" value="&lt;br&gt;&lt;span style=&quot;color: rgb(0, 0, 0); font-family: Helvetica; font-size: 11px; font-style: normal; font-variant-ligatures: normal; font-variant-caps: normal; font-weight: 400; letter-spacing: normal; orphans: 2; text-align: center; text-indent: 0px; text-transform: none; widows: 2; word-spacing: 0px; -webkit-text-stroke-width: 0px; white-space: nowrap; background-color: rgb(255, 255, 255); text-decoration-thickness: initial; text-decoration-style: initial; text-decoration-color: initial; display: inline !important; float: none;&quot;&gt;&amp;lt;&amp;lt;include&amp;gt;&amp;gt;&lt;/span&gt;" style="rounded=0;orthogonalLoop=1;jettySize=auto;html=1;exitX=1;exitY=0.5;exitDx=0;exitDy=0;entryX=0;entryY=0.5;entryDx=0;entryDy=0;" edge="1" parent="gQ7rpUJrjsXag59dIkuR-16" source="gQ7rpUJrjsXag59dIkuR-4" target="gQ7rpUJrjsXag59dIkuR-31">
          <mxGeometry relative="1" as="geometry" />
        </mxCell>
        <mxCell id="gQ7rpUJrjsXag59dIkuR-4" value="SUC-procLLMComm" style="ellipse;whiteSpace=wrap;html=1;fontSize=15;" vertex="1" parent="gQ7rpUJrjsXag59dIkuR-16">
          <mxGeometry x="700" y="565" width="120" height="80" as="geometry" />
        </mxCell>
        <mxCell id="gQ7rpUJrjsXag59dIkuR-5" value="SUC-SendPackServer" style="ellipse;whiteSpace=wrap;html=1;fontSize=15;" vertex="1" parent="gQ7rpUJrjsXag59dIkuR-16">
          <mxGeometry x="30" y="780" width="120" height="80" as="geometry" />
        </mxCell>
        <mxCell id="gQ7rpUJrjsXag59dIkuR-9" value="SUC-RecPackServer" style="ellipse;whiteSpace=wrap;html=1;fontSize=15;" vertex="1" parent="gQ7rpUJrjsXag59dIkuR-16">
          <mxGeometry x="290" y="10" width="120" height="80" as="geometry" />
        </mxCell>
        <mxCell id="gQ7rpUJrjsXag59dIkuR-1" value="SUC-ReqAPIResp" style="ellipse;whiteSpace=wrap;html=1;fontSize=15;" vertex="1" parent="gQ7rpUJrjsXag59dIkuR-16">
          <mxGeometry x="890" y="60" width="120" height="80" as="geometry" />
        </mxCell>
        <mxCell id="gQ7rpUJrjsXag59dIkuR-7" value="SUC-RecPackClient" style="ellipse;whiteSpace=wrap;html=1;fontSize=15;" vertex="1" parent="gQ7rpUJrjsXag59dIkuR-16">
          <mxGeometry x="540" y="120" width="115" height="90" as="geometry" />
        </mxCell>
        <mxCell id="gQ7rpUJrjsXag59dIkuR-73" value="&amp;lt;&amp;lt;extends&amp;gt;&amp;gt;" style="rounded=0;orthogonalLoop=1;jettySize=auto;html=1;exitX=0.5;exitY=0;exitDx=0;exitDy=0;entryX=1;entryY=1;entryDx=0;entryDy=0;" edge="1" parent="gQ7rpUJrjsXag59dIkuR-16" source="gQ7rpUJrjsXag59dIkuR-13" target="gQ7rpUJrjsXag59dIkuR-11">
          <mxGeometry relative="1" as="geometry" />
        </mxCell>
        <mxCell id="gQ7rpUJrjsXag59dIkuR-13" value="UC-ChangeHud" style="ellipse;whiteSpace=wrap;html=1;fontSize=15;" vertex="1" parent="gQ7rpUJrjsXag59dIkuR-16">
          <mxGeometry x="570" y="780" width="120" height="80" as="geometry" />
        </mxCell>
        <mxCell id="gQ7rpUJrjsXag59dIkuR-54" value="&amp;lt;&amp;lt;Include&amp;gt;&amp;gt;" style="rounded=0;orthogonalLoop=1;jettySize=auto;html=1;exitX=0.5;exitY=1;exitDx=0;exitDy=0;entryX=0;entryY=1;entryDx=0;entryDy=0;" edge="1" parent="gQ7rpUJrjsXag59dIkuR-16" source="gQ7rpUJrjsXag59dIkuR-11" target="gQ7rpUJrjsXag59dIkuR-1">
          <mxGeometry x="0.5676" relative="1" as="geometry">
            <mxPoint as="offset" />
          </mxGeometry>
        </mxCell>
        <mxCell id="gQ7rpUJrjsXag59dIkuR-57" value="&lt;br&gt;&lt;span style=&quot;color: rgb(0, 0, 0); font-family: Helvetica; font-size: 11px; font-style: normal; font-variant-ligatures: normal; font-variant-caps: normal; font-weight: 400; letter-spacing: normal; orphans: 2; text-align: center; text-indent: 0px; text-transform: none; widows: 2; word-spacing: 0px; -webkit-text-stroke-width: 0px; white-space: nowrap; background-color: rgb(255, 255, 255); text-decoration-thickness: initial; text-decoration-style: initial; text-decoration-color: initial; display: inline !important; float: none;&quot;&gt;&amp;lt;&amp;lt;include&amp;gt;&amp;gt;&lt;/span&gt;" style="rounded=0;orthogonalLoop=1;jettySize=auto;html=1;exitX=0.5;exitY=1;exitDx=0;exitDy=0;entryX=0.5;entryY=1;entryDx=0;entryDy=0;" edge="1" parent="gQ7rpUJrjsXag59dIkuR-16" source="gQ7rpUJrjsXag59dIkuR-11" target="gQ7rpUJrjsXag59dIkuR-7">
          <mxGeometry relative="1" as="geometry" />
        </mxCell>
        <mxCell id="gQ7rpUJrjsXag59dIkuR-59" value="&lt;span style=&quot;color: rgb(0, 0, 0); font-family: Helvetica; font-size: 11px; font-style: normal; font-variant-ligatures: normal; font-variant-caps: normal; font-weight: 400; letter-spacing: normal; orphans: 2; text-align: center; text-indent: 0px; text-transform: none; widows: 2; word-spacing: 0px; -webkit-text-stroke-width: 0px; white-space: nowrap; background-color: rgb(255, 255, 255); text-decoration-thickness: initial; text-decoration-style: initial; text-decoration-color: initial; display: inline !important; float: none;&quot;&gt;&amp;lt;&amp;lt;include&amp;gt;&amp;gt;&lt;/span&gt;" style="rounded=0;orthogonalLoop=1;jettySize=auto;html=1;exitX=0.5;exitY=1;exitDx=0;exitDy=0;entryX=0.5;entryY=0;entryDx=0;entryDy=0;" edge="1" parent="gQ7rpUJrjsXag59dIkuR-16" source="gQ7rpUJrjsXag59dIkuR-11" target="gQ7rpUJrjsXag59dIkuR-31">
          <mxGeometry x="0.0015" relative="1" as="geometry">
            <mxPoint as="offset" />
          </mxGeometry>
        </mxCell>
        <mxCell id="gQ7rpUJrjsXag59dIkuR-62" value="&lt;span style=&quot;color: rgb(0, 0, 0); font-family: Helvetica; font-size: 11px; font-style: normal; font-variant-ligatures: normal; font-variant-caps: normal; font-weight: 400; letter-spacing: normal; orphans: 2; text-align: center; text-indent: 0px; text-transform: none; widows: 2; word-spacing: 0px; -webkit-text-stroke-width: 0px; white-space: nowrap; background-color: rgb(255, 255, 255); text-decoration-thickness: initial; text-decoration-style: initial; text-decoration-color: initial; display: inline !important; float: none;&quot;&gt;&amp;lt;&amp;lt;include&amp;gt;&amp;gt;&lt;/span&gt;" style="rounded=0;orthogonalLoop=1;jettySize=auto;html=1;exitX=0.5;exitY=1;exitDx=0;exitDy=0;entryX=0;entryY=0.5;entryDx=0;entryDy=0;" edge="1" parent="gQ7rpUJrjsXag59dIkuR-16" source="gQ7rpUJrjsXag59dIkuR-11" target="gQ7rpUJrjsXag59dIkuR-4">
          <mxGeometry relative="1" as="geometry" />
        </mxCell>
        <mxCell id="gQ7rpUJrjsXag59dIkuR-64" value="&lt;br&gt;&lt;span style=&quot;color: rgb(0, 0, 0); font-family: Helvetica; font-size: 11px; font-style: normal; font-variant-ligatures: normal; font-variant-caps: normal; font-weight: 400; letter-spacing: normal; orphans: 2; text-align: center; text-indent: 0px; text-transform: none; widows: 2; word-spacing: 0px; -webkit-text-stroke-width: 0px; white-space: nowrap; background-color: rgb(255, 255, 255); text-decoration-thickness: initial; text-decoration-style: initial; text-decoration-color: initial; display: inline !important; float: none;&quot;&gt;&amp;lt;&amp;lt;include&amp;gt;&amp;gt;&lt;/span&gt;" style="rounded=0;orthogonalLoop=1;jettySize=auto;html=1;exitX=0;exitY=0.5;exitDx=0;exitDy=0;entryX=1;entryY=0.5;entryDx=0;entryDy=0;" edge="1" parent="gQ7rpUJrjsXag59dIkuR-16" source="gQ7rpUJrjsXag59dIkuR-11" target="gQ7rpUJrjsXag59dIkuR-29">
          <mxGeometry relative="1" as="geometry" />
        </mxCell>
        <mxCell id="gQ7rpUJrjsXag59dIkuR-66" value="&lt;span style=&quot;color: rgb(0, 0, 0); font-family: Helvetica; font-size: 11px; font-style: normal; font-variant-ligatures: normal; font-variant-caps: normal; font-weight: 400; letter-spacing: normal; orphans: 2; text-align: center; text-indent: 0px; text-transform: none; widows: 2; word-spacing: 0px; -webkit-text-stroke-width: 0px; white-space: nowrap; background-color: rgb(255, 255, 255); text-decoration-thickness: initial; text-decoration-style: initial; text-decoration-color: initial; display: inline !important; float: none;&quot;&gt;&amp;lt;&amp;lt;include&amp;gt;&amp;gt;&lt;/span&gt;" style="rounded=0;orthogonalLoop=1;jettySize=auto;html=1;exitX=0;exitY=0;exitDx=0;exitDy=0;entryX=0.5;entryY=1;entryDx=0;entryDy=0;" edge="1" parent="gQ7rpUJrjsXag59dIkuR-16" source="gQ7rpUJrjsXag59dIkuR-11" target="gQ7rpUJrjsXag59dIkuR-9">
          <mxGeometry x="0.5376" y="4" relative="1" as="geometry">
            <mxPoint as="offset" />
          </mxGeometry>
        </mxCell>
        <mxCell id="gQ7rpUJrjsXag59dIkuR-68" value="&lt;span style=&quot;color: rgb(0, 0, 0); font-family: Helvetica; font-size: 11px; font-style: normal; font-variant-ligatures: normal; font-variant-caps: normal; font-weight: 400; letter-spacing: normal; orphans: 2; text-align: center; text-indent: 0px; text-transform: none; widows: 2; word-spacing: 0px; -webkit-text-stroke-width: 0px; white-space: nowrap; background-color: rgb(255, 255, 255); text-decoration-thickness: initial; text-decoration-style: initial; text-decoration-color: initial; display: inline !important; float: none;&quot;&gt;&amp;lt;&amp;lt;include&amp;gt;&amp;gt;&lt;/span&gt;" style="rounded=0;orthogonalLoop=1;jettySize=auto;html=1;exitX=0;exitY=0.5;exitDx=0;exitDy=0;entryX=0.5;entryY=0;entryDx=0;entryDy=0;" edge="1" parent="gQ7rpUJrjsXag59dIkuR-16" source="gQ7rpUJrjsXag59dIkuR-11" target="gQ7rpUJrjsXag59dIkuR-5">
          <mxGeometry relative="1" as="geometry" />
        </mxCell>
        <mxCell id="gQ7rpUJrjsXag59dIkuR-11" value="UC-VilConv" style="ellipse;whiteSpace=wrap;html=1;labelBackgroundColor=none;fillColor=#0066CC;fontSize=15;" vertex="1" parent="gQ7rpUJrjsXag59dIkuR-16">
          <mxGeometry x="350" y="380" width="120" height="80" as="geometry" />
        </mxCell>
        <mxCell id="gQ7rpUJrjsXag59dIkuR-27" value="UC-LoadMod" style="ellipse;whiteSpace=wrap;html=1;fontSize=15;" vertex="1" parent="gQ7rpUJrjsXag59dIkuR-16">
          <mxGeometry x="940" y="780" width="120" height="80" as="geometry" />
        </mxCell>
        <mxCell id="gQ7rpUJrjsXag59dIkuR-43" value="&amp;lt;&amp;lt;include&amp;gt;&amp;gt;" style="rounded=0;orthogonalLoop=1;jettySize=auto;html=1;exitX=0.5;exitY=0;exitDx=0;exitDy=0;entryX=0.5;entryY=1;entryDx=0;entryDy=0;" edge="1" parent="gQ7rpUJrjsXag59dIkuR-16" source="gQ7rpUJrjsXag59dIkuR-27" target="gQ7rpUJrjsXag59dIkuR-28">
          <mxGeometry relative="1" as="geometry" />
        </mxCell>
        <mxCell id="gQ7rpUJrjsXag59dIkuR-28" value="SUC-FabModLoad" style="ellipse;whiteSpace=wrap;html=1;fontSize=15;" vertex="1" parent="gQ7rpUJrjsXag59dIkuR-16">
          <mxGeometry x="940" y="610" width="120" height="80" as="geometry" />
        </mxCell>
        <mxCell id="gQ7rpUJrjsXag59dIkuR-29" value="SUC-SendPackClient" style="ellipse;whiteSpace=wrap;html=1;fontSize=15;" vertex="1" parent="gQ7rpUJrjsXag59dIkuR-16">
          <mxGeometry x="80" y="200" width="120" height="80" as="geometry" />
        </mxCell>
        <mxCell id="gQ7rpUJrjsXag59dIkuR-75" value="&amp;lt;&amp;lt;extends&amp;gt;&amp;gt;" style="rounded=0;orthogonalLoop=1;jettySize=auto;html=1;exitX=0.5;exitY=0;exitDx=0;exitDy=0;entryX=0.5;entryY=1;entryDx=0;entryDy=0;" edge="1" parent="gQ7rpUJrjsXag59dIkuR-16" source="gQ7rpUJrjsXag59dIkuR-30" target="gQ7rpUJrjsXag59dIkuR-11">
          <mxGeometry relative="1" as="geometry" />
        </mxCell>
        <mxCell id="gQ7rpUJrjsXag59dIkuR-30" value="UC-RemPlayer" style="ellipse;whiteSpace=wrap;html=1;fontSize=15;" vertex="1" parent="gQ7rpUJrjsXag59dIkuR-16">
          <mxGeometry x="270" y="830" width="120" height="80" as="geometry" />
        </mxCell>
        <mxCell id="gQ7rpUJrjsXag59dIkuR-31" value="SUC-RecAPIResp" style="ellipse;whiteSpace=wrap;html=1;fontSize=15;" vertex="1" parent="gQ7rpUJrjsXag59dIkuR-16">
          <mxGeometry x="1010" y="230" width="120" height="80" as="geometry" />
        </mxCell>
        <mxCell id="gQ7rpUJrjsXag59dIkuR-12" value="UC-NegPrice" style="ellipse;whiteSpace=wrap;html=1;fontSize=15;fillColor=#0066CC;fontColor=#000000;labelBackgroundColor=none;" vertex="1" parent="gQ7rpUJrjsXag59dIkuR-16">
          <mxGeometry x="600" y="380" width="120" height="80" as="geometry" />
        </mxCell>
        <mxCell id="gQ7rpUJrjsXag59dIkuR-65" value="&lt;span style=&quot;color: rgb(0, 0, 0); font-family: Helvetica; font-size: 11px; font-style: normal; font-variant-ligatures: normal; font-variant-caps: normal; font-weight: 400; letter-spacing: normal; orphans: 2; text-align: center; text-indent: 0px; text-transform: none; widows: 2; word-spacing: 0px; -webkit-text-stroke-width: 0px; white-space: nowrap; background-color: rgb(255, 255, 255); text-decoration-thickness: initial; text-decoration-style: initial; text-decoration-color: initial; display: inline !important; float: none;&quot;&gt;&amp;lt;&amp;lt;include&amp;gt;&amp;gt;&lt;/span&gt;" style="rounded=0;orthogonalLoop=1;jettySize=auto;html=1;exitX=0;exitY=0.5;exitDx=0;exitDy=0;entryX=1;entryY=0.5;entryDx=0;entryDy=0;" edge="1" parent="gQ7rpUJrjsXag59dIkuR-16" source="gQ7rpUJrjsXag59dIkuR-12" target="gQ7rpUJrjsXag59dIkuR-29">
          <mxGeometry x="0.6112" y="-5" relative="1" as="geometry">
            <mxPoint x="1" as="offset" />
          </mxGeometry>
        </mxCell>
        <mxCell id="gQ7rpUJrjsXag59dIkuR-60" value="&lt;span style=&quot;color: rgb(0, 0, 0); font-family: Helvetica; font-size: 11px; font-style: normal; font-variant-ligatures: normal; font-variant-caps: normal; font-weight: 400; letter-spacing: normal; orphans: 2; text-align: center; text-indent: 0px; text-transform: none; widows: 2; word-spacing: 0px; -webkit-text-stroke-width: 0px; white-space: nowrap; background-color: rgb(255, 255, 255); text-decoration-thickness: initial; text-decoration-style: initial; text-decoration-color: initial; display: inline !important; float: none;&quot;&gt;&amp;lt;&amp;lt;include&amp;gt;&amp;gt;&lt;/span&gt;" style="rounded=0;orthogonalLoop=1;jettySize=auto;html=1;exitX=1;exitY=0;exitDx=0;exitDy=0;entryX=0.5;entryY=0;entryDx=0;entryDy=0;" edge="1" parent="gQ7rpUJrjsXag59dIkuR-16" source="gQ7rpUJrjsXag59dIkuR-12" target="gQ7rpUJrjsXag59dIkuR-31">
          <mxGeometry relative="1" as="geometry" />
        </mxCell>
        <mxCell id="gQ7rpUJrjsXag59dIkuR-58" value="&lt;span style=&quot;color: rgb(0, 0, 0); font-family: Helvetica; font-size: 11px; font-style: normal; font-variant-ligatures: normal; font-variant-caps: normal; font-weight: 400; letter-spacing: normal; orphans: 2; text-align: center; text-indent: 0px; text-transform: none; widows: 2; word-spacing: 0px; -webkit-text-stroke-width: 0px; white-space: nowrap; background-color: rgb(255, 255, 255); text-decoration-thickness: initial; text-decoration-style: initial; text-decoration-color: initial; display: inline !important; float: none;&quot;&gt;&amp;lt;&amp;lt;include&amp;gt;&amp;gt;&lt;/span&gt;" style="rounded=0;orthogonalLoop=1;jettySize=auto;html=1;exitX=0.5;exitY=0;exitDx=0;exitDy=0;entryX=0.5;entryY=1;entryDx=0;entryDy=0;" edge="1" parent="gQ7rpUJrjsXag59dIkuR-16" source="gQ7rpUJrjsXag59dIkuR-12" target="gQ7rpUJrjsXag59dIkuR-7">
          <mxGeometry relative="1" as="geometry" />
        </mxCell>
        <mxCell id="gQ7rpUJrjsXag59dIkuR-55" value="&amp;lt;&amp;lt;include&amp;gt;&amp;gt;" style="rounded=0;orthogonalLoop=1;jettySize=auto;html=1;exitX=0.5;exitY=0;exitDx=0;exitDy=0;entryX=0;entryY=1;entryDx=0;entryDy=0;" edge="1" parent="gQ7rpUJrjsXag59dIkuR-16" source="gQ7rpUJrjsXag59dIkuR-12" target="gQ7rpUJrjsXag59dIkuR-1">
          <mxGeometry x="0.1215" y="-2" relative="1" as="geometry">
            <mxPoint y="-1" as="offset" />
          </mxGeometry>
        </mxCell>
        <mxCell id="gQ7rpUJrjsXag59dIkuR-67" value="&lt;span style=&quot;color: rgb(0, 0, 0); font-family: Helvetica; font-size: 11px; font-style: normal; font-variant-ligatures: normal; font-variant-caps: normal; font-weight: 400; letter-spacing: normal; orphans: 2; text-align: center; text-indent: 0px; text-transform: none; widows: 2; word-spacing: 0px; -webkit-text-stroke-width: 0px; white-space: nowrap; background-color: rgb(255, 255, 255); text-decoration-thickness: initial; text-decoration-style: initial; text-decoration-color: initial; display: inline !important; float: none;&quot;&gt;&amp;lt;&amp;lt;include&amp;gt;&amp;gt;&lt;/span&gt;" style="rounded=0;orthogonalLoop=1;jettySize=auto;html=1;exitX=0;exitY=0.5;exitDx=0;exitDy=0;entryX=0.5;entryY=1;entryDx=0;entryDy=0;" edge="1" parent="gQ7rpUJrjsXag59dIkuR-16" source="gQ7rpUJrjsXag59dIkuR-12" target="gQ7rpUJrjsXag59dIkuR-9">
          <mxGeometry x="0.5263" y="-14" relative="1" as="geometry">
            <mxPoint y="1" as="offset" />
          </mxGeometry>
        </mxCell>
        <mxCell id="gQ7rpUJrjsXag59dIkuR-69" value="&lt;span style=&quot;color: rgb(0, 0, 0); font-family: Helvetica; font-size: 11px; font-style: normal; font-variant-ligatures: normal; font-variant-caps: normal; font-weight: 400; letter-spacing: normal; orphans: 2; text-align: center; text-indent: 0px; text-transform: none; widows: 2; word-spacing: 0px; -webkit-text-stroke-width: 0px; white-space: nowrap; background-color: rgb(255, 255, 255); text-decoration-thickness: initial; text-decoration-style: initial; text-decoration-color: initial; display: inline !important; float: none;&quot;&gt;&amp;lt;&amp;lt;include&amp;gt;&amp;gt;&lt;/span&gt;" style="rounded=0;orthogonalLoop=1;jettySize=auto;html=1;exitX=0;exitY=0.5;exitDx=0;exitDy=0;entryX=0.5;entryY=0;entryDx=0;entryDy=0;" edge="1" parent="gQ7rpUJrjsXag59dIkuR-16" source="gQ7rpUJrjsXag59dIkuR-12" target="gQ7rpUJrjsXag59dIkuR-5">
          <mxGeometry relative="1" as="geometry" />
        </mxCell>
        <mxCell id="gQ7rpUJrjsXag59dIkuR-63" value="&lt;br&gt;&lt;span style=&quot;color: rgb(0, 0, 0); font-family: Helvetica; font-size: 11px; font-style: normal; font-variant-ligatures: normal; font-variant-caps: normal; font-weight: 400; letter-spacing: normal; orphans: 2; text-align: center; text-indent: 0px; text-transform: none; widows: 2; word-spacing: 0px; -webkit-text-stroke-width: 0px; white-space: nowrap; background-color: rgb(255, 255, 255); text-decoration-thickness: initial; text-decoration-style: initial; text-decoration-color: initial; display: inline !important; float: none;&quot;&gt;&amp;lt;&amp;lt;include&amp;gt;&amp;gt;&lt;/span&gt;" style="rounded=0;orthogonalLoop=1;jettySize=auto;html=1;exitX=0.5;exitY=1;exitDx=0;exitDy=0;entryX=0.5;entryY=0;entryDx=0;entryDy=0;" edge="1" parent="gQ7rpUJrjsXag59dIkuR-16" source="gQ7rpUJrjsXag59dIkuR-12" target="gQ7rpUJrjsXag59dIkuR-4">
          <mxGeometry relative="1" as="geometry" />
        </mxCell>
        <mxCell id="gQ7rpUJrjsXag59dIkuR-72" value="&amp;lt;&amp;lt;extends&amp;gt;&amp;gt;" style="rounded=0;orthogonalLoop=1;jettySize=auto;html=1;exitX=0;exitY=0.5;exitDx=0;exitDy=0;entryX=1;entryY=1;entryDx=0;entryDy=0;" edge="1" parent="gQ7rpUJrjsXag59dIkuR-16" source="gQ7rpUJrjsXag59dIkuR-12" target="gQ7rpUJrjsXag59dIkuR-11">
          <mxGeometry relative="1" as="geometry" />
        </mxCell>
        <mxCell id="gQ7rpUJrjsXag59dIkuR-74" value="&amp;lt;&amp;lt;extends&amp;gt;&amp;gt;" style="rounded=0;orthogonalLoop=1;jettySize=auto;html=1;exitX=0.5;exitY=0;exitDx=0;exitDy=0;entryX=0.5;entryY=1;entryDx=0;entryDy=0;" edge="1" parent="gQ7rpUJrjsXag59dIkuR-16" source="gQ7rpUJrjsXag59dIkuR-13" target="gQ7rpUJrjsXag59dIkuR-12">
          <mxGeometry relative="1" as="geometry" />
        </mxCell>
        <mxCell id="gQ7rpUJrjsXag59dIkuR-76" value="&amp;lt;&amp;lt;extends&amp;gt;&amp;gt;" style="rounded=0;orthogonalLoop=1;jettySize=auto;html=1;exitX=0.5;exitY=0;exitDx=0;exitDy=0;entryX=0.5;entryY=1;entryDx=0;entryDy=0;" edge="1" parent="gQ7rpUJrjsXag59dIkuR-16" source="gQ7rpUJrjsXag59dIkuR-30" target="gQ7rpUJrjsXag59dIkuR-12">
          <mxGeometry relative="1" as="geometry" />
        </mxCell>
        <mxCell id="gQ7rpUJrjsXag59dIkuR-17" value="VillagerTalk Mod" style="text;html=1;align=center;verticalAlign=middle;resizable=0;points=[];autosize=1;strokeColor=none;fillColor=none;fontSize=24;" vertex="1" parent="1">
          <mxGeometry x="685" y="70" width="200" height="40" as="geometry" />
        </mxCell>
        <mxCell id="gQ7rpUJrjsXag59dIkuR-35" style="rounded=0;orthogonalLoop=1;jettySize=auto;html=1;exitX=0;exitY=0.3333333333333333;exitDx=0;exitDy=0;exitPerimeter=0;entryX=1;entryY=0.5;entryDx=0;entryDy=0;" edge="1" parent="1" source="gQ7rpUJrjsXag59dIkuR-32" target="gQ7rpUJrjsXag59dIkuR-12">
          <mxGeometry relative="1" as="geometry" />
        </mxCell>
        <mxCell id="gQ7rpUJrjsXag59dIkuR-37" style="rounded=0;orthogonalLoop=1;jettySize=auto;html=1;exitX=0;exitY=0.3333333333333333;exitDx=0;exitDy=0;exitPerimeter=0;entryX=1;entryY=0.5;entryDx=0;entryDy=0;" edge="1" parent="1" source="gQ7rpUJrjsXag59dIkuR-32" target="gQ7rpUJrjsXag59dIkuR-1">
          <mxGeometry relative="1" as="geometry" />
        </mxCell>
        <mxCell id="gQ7rpUJrjsXag59dIkuR-38" style="rounded=0;orthogonalLoop=1;jettySize=auto;html=1;exitX=0;exitY=0.3333333333333333;exitDx=0;exitDy=0;exitPerimeter=0;entryX=1;entryY=0.5;entryDx=0;entryDy=0;" edge="1" parent="1" source="gQ7rpUJrjsXag59dIkuR-32" target="gQ7rpUJrjsXag59dIkuR-31">
          <mxGeometry relative="1" as="geometry" />
        </mxCell>
        <mxCell id="gQ7rpUJrjsXag59dIkuR-32" value="LLM API" style="shape=umlActor;verticalLabelPosition=bottom;verticalAlign=top;html=1;outlineConnect=0;fontSize=19;fillColor=#0066CC;" vertex="1" parent="1">
          <mxGeometry x="1510" y="290" width="100" height="120" as="geometry" />
        </mxCell>
        <mxCell id="gQ7rpUJrjsXag59dIkuR-39" value="Minecraft Client" style="shape=umlActor;verticalLabelPosition=bottom;verticalAlign=top;html=1;outlineConnect=0;" vertex="1" parent="1">
          <mxGeometry x="1510" y="465" width="90" height="120" as="geometry" />
        </mxCell>
        <mxCell id="gQ7rpUJrjsXag59dIkuR-40" value="Minecraft Server" style="shape=umlActor;verticalLabelPosition=bottom;verticalAlign=top;html=1;outlineConnect=0;" vertex="1" parent="1">
          <mxGeometry x="1515" y="630" width="90" height="120" as="geometry" />
        </mxCell>
        <mxCell id="gQ7rpUJrjsXag59dIkuR-46" style="rounded=0;orthogonalLoop=1;jettySize=auto;html=1;exitX=0;exitY=0.3333333333333333;exitDx=0;exitDy=0;exitPerimeter=0;entryX=1;entryY=0.5;entryDx=0;entryDy=0;" edge="1" parent="1" source="gQ7rpUJrjsXag59dIkuR-42" target="gQ7rpUJrjsXag59dIkuR-27">
          <mxGeometry relative="1" as="geometry" />
        </mxCell>
        <mxCell id="gQ7rpUJrjsXag59dIkuR-47" style="rounded=0;orthogonalLoop=1;jettySize=auto;html=1;exitX=0;exitY=0.3333333333333333;exitDx=0;exitDy=0;exitPerimeter=0;entryX=1;entryY=0.5;entryDx=0;entryDy=0;" edge="1" parent="1" source="gQ7rpUJrjsXag59dIkuR-42" target="gQ7rpUJrjsXag59dIkuR-28">
          <mxGeometry relative="1" as="geometry" />
        </mxCell>
        <mxCell id="gQ7rpUJrjsXag59dIkuR-42" value="Fabric Mod Loader" style="shape=umlActor;verticalLabelPosition=bottom;verticalAlign=top;html=1;outlineConnect=0;" vertex="1" parent="1">
          <mxGeometry x="1510" y="800" width="90" height="120" as="geometry" />
        </mxCell>
        <mxCell id="gQ7rpUJrjsXag59dIkuR-49" style="rounded=0;orthogonalLoop=1;jettySize=auto;html=1;exitX=1;exitY=0.3333333333333333;exitDx=0;exitDy=0;exitPerimeter=0;entryX=0;entryY=0.5;entryDx=0;entryDy=0;" edge="1" parent="1" source="gQ7rpUJrjsXag59dIkuR-48" target="gQ7rpUJrjsXag59dIkuR-27">
          <mxGeometry relative="1" as="geometry" />
        </mxCell>
        <mxCell id="gQ7rpUJrjsXag59dIkuR-50" style="rounded=0;orthogonalLoop=1;jettySize=auto;html=1;exitX=1;exitY=0.3333333333333333;exitDx=0;exitDy=0;exitPerimeter=0;entryX=0;entryY=0.5;entryDx=0;entryDy=0;" edge="1" parent="1" source="gQ7rpUJrjsXag59dIkuR-48" target="gQ7rpUJrjsXag59dIkuR-11">
          <mxGeometry relative="1" as="geometry" />
        </mxCell>
        <mxCell id="gQ7rpUJrjsXag59dIkuR-51" style="rounded=0;orthogonalLoop=1;jettySize=auto;html=1;exitX=1;exitY=0.3333333333333333;exitDx=0;exitDy=0;exitPerimeter=0;entryX=0;entryY=0.5;entryDx=0;entryDy=0;" edge="1" parent="1" source="gQ7rpUJrjsXag59dIkuR-48" target="gQ7rpUJrjsXag59dIkuR-12">
          <mxGeometry relative="1" as="geometry" />
        </mxCell>
        <mxCell id="gQ7rpUJrjsXag59dIkuR-52" style="rounded=0;orthogonalLoop=1;jettySize=auto;html=1;exitX=0.5;exitY=0;exitDx=0;exitDy=0;exitPerimeter=0;entryX=0.5;entryY=1;entryDx=0;entryDy=0;" edge="1" parent="1" source="gQ7rpUJrjsXag59dIkuR-48" target="gQ7rpUJrjsXag59dIkuR-13">
          <mxGeometry relative="1" as="geometry" />
        </mxCell>
        <mxCell id="gQ7rpUJrjsXag59dIkuR-53" style="rounded=0;orthogonalLoop=1;jettySize=auto;html=1;exitX=0.5;exitY=0;exitDx=0;exitDy=0;exitPerimeter=0;entryX=1;entryY=0.5;entryDx=0;entryDy=0;" edge="1" parent="1" source="gQ7rpUJrjsXag59dIkuR-48" target="gQ7rpUJrjsXag59dIkuR-30">
          <mxGeometry relative="1" as="geometry" />
        </mxCell>
        <mxCell id="gQ7rpUJrjsXag59dIkuR-48" value="Player/User" style="shape=umlActor;verticalLabelPosition=bottom;verticalAlign=top;html=1;outlineConnect=0;" vertex="1" parent="1">
          <mxGeometry x="745" y="1000" width="140" height="120" as="geometry" />
        </mxCell>
        <mxCell id="gQ7rpUJrjsXag59dIkuR-70" value="" style="rounded=0;orthogonalLoop=1;jettySize=auto;html=1;exitX=0;exitY=0.3333333333333333;exitDx=0;exitDy=0;exitPerimeter=0;entryX=1;entryY=0.5;entryDx=0;entryDy=0;strokeColor=default;" edge="1" parent="1" source="gQ7rpUJrjsXag59dIkuR-32" target="gQ7rpUJrjsXag59dIkuR-12">
          <mxGeometry relative="1" as="geometry">
            <mxPoint x="1510" y="330" as="sourcePoint" />
            <mxPoint x="760" y="450" as="targetPoint" />
          </mxGeometry>
        </mxCell>
      </root>
    </mxGraphModel>
  </diagram>
</mxfile>
